<?xml version="1.0" standalone="no"?>
<!DOCTYPE svg PUBLIC "-//W3C//DTD SVG 20010904//EN"
 "http://www.w3.org/TR/2001/REC-SVG-20010904/DTD/svg10.dtd">
<svg version="1.0" xmlns="http://www.w3.org/2000/svg"
 width="995.000000pt" height="995.000000pt" viewBox="0 0 995.000000 995.000000"
 preserveAspectRatio="xMidYMid meet">
<metadata>
Created by potrace 1.14, written by Peter Selinger 2001-2017
</metadata>
<g transform="translate(0.000000,995.000000) scale(0.100000,-0.100000)"
fill="#000000" stroke="none">
<path d="M2530 7953 c-227 -6 -505 -35 -620 -65 -63 -16 -122 -31 -130 -33 -8
-2 -50 -19 -92 -38 -119 -54 -277 -167 -364 -260 -101 -107 -126 -143 -183
-257 -124 -246 -163 -489 -176 -1085 -7 -293 -8 -2191 -1 -2515 7 -387 27
-794 45 -940 36 -284 87 -406 231 -550 120 -120 250 -173 430 -174 129 -1 219
25 324 94 136 89 220 194 275 345 39 106 66 270 81 494 5 79 14 185 19 235 6
50 13 138 16 196 3 58 10 128 15 155 6 28 12 73 16 100 22 192 25 215 36 245
21 62 38 120 38 132 0 8 17 28 38 44 51 41 58 45 95 49 18 3 43 7 57 9 14 3
50 11 80 17 30 6 80 17 110 24 30 8 87 17 125 20 39 3 102 8 140 11 39 3 86 9
105 14 19 5 78 12 130 14 52 3 147 8 210 12 153 8 359 39 439 65 264 88 451
374 426 651 -13 140 -90 311 -184 407 -146 150 -360 220 -746 246 -38 3 -79 7
-90 9 -11 3 -63 8 -115 11 -52 3 -135 13 -185 20 -49 8 -110 17 -134 19 -24 2
-46 8 -50 13 -6 11 -140 33 -196 33 -19 0 -35 5 -35 10 0 6 -15 10 -34 10 -19
0 -36 6 -39 14 -3 7 -19 16 -36 19 -24 5 -31 12 -31 30 0 13 -9 32 -19 41 -15
14 -20 36 -25 104 -3 48 -8 109 -12 136 -4 34 -3 47 5 42 8 -5 11 20 11 84 0
83 3 95 25 124 48 62 56 68 81 63 19 -3 26 1 30 19 6 22 11 24 69 24 37 0 65
5 67 11 3 10 61 19 121 19 15 0 27 4 27 10 0 5 15 10 33 10 17 0 50 5 72 10
22 5 72 10 110 11 39 1 72 5 75 9 3 4 115 13 250 19 359 18 546 40 695 84 72
21 187 81 238 125 24 20 61 51 82 67 22 17 49 39 61 50 39 35 64 55 69 55 2 0
18 -13 35 -30 16 -16 30 -27 30 -23 0 3 11 -6 25 -21 14 -15 25 -30 25 -34 0
-4 11 -19 24 -35 13 -15 34 -43 47 -62 13 -19 27 -35 32 -35 4 0 7 -6 7 -13 0
-7 11 -24 25 -39 14 -15 25 -30 25 -33 0 -3 19 -31 43 -61 39 -52 71 -96 131
-184 14 -19 54 -75 91 -125 91 -124 106 -145 183 -261 37 -56 92 -139 123
-185 64 -97 129 -204 129 -213 0 -4 17 -33 37 -64 34 -53 83 -138 139 -241 13
-24 24 -50 24 -58 0 -8 9 -31 20 -53 13 -26 20 -59 20 -97 0 -39 -7 -72 -20
-98 -11 -22 -20 -46 -20 -55 0 -18 -24 -66 -64 -128 -15 -24 -30 -51 -34 -60
-4 -9 -32 -56 -63 -103 -31 -47 -66 -103 -78 -125 -25 -45 -54 -90 -132 -206
-31 -46 -68 -103 -84 -127 -15 -25 -32 -50 -36 -55 -29 -36 -152 -212 -157
-225 -5 -15 -139 -211 -151 -221 -13 -10 -180 -267 -201 -307 -12 -23 -28 -47
-36 -54 -8 -6 -14 -17 -14 -24 0 -8 -4 -15 -9 -17 -11 -4 -50 -70 -102 -173
-143 -284 -155 -463 -48 -684 41 -83 64 -116 118 -170 187 -184 466 -230 707
-115 68 32 114 64 185 127 52 46 110 104 129 127 19 24 55 67 80 94 63 70 110
125 145 171 17 21 35 43 40 49 6 6 31 38 57 71 25 33 58 71 72 84 14 14 26 30
26 37 0 7 6 17 13 21 6 4 30 31 52 58 22 28 49 59 60 71 11 11 33 38 50 60 30
40 47 60 125 143 25 26 68 73 95 104 28 31 54 57 58 57 10 0 63 47 115 103 19
20 41 37 49 37 7 0 13 5 13 10 0 6 33 10 80 10 l81 0 51 -47 c29 -27 66 -63
82 -80 17 -18 36 -33 41 -33 6 0 31 -23 55 -52 25 -28 72 -79 105 -112 33 -34
80 -87 104 -119 24 -32 60 -75 79 -95 19 -20 45 -54 58 -75 14 -20 46 -61 72
-90 26 -28 58 -68 71 -87 14 -19 47 -62 75 -95 28 -33 69 -82 91 -110 21 -27
48 -59 60 -70 11 -11 52 -58 92 -105 166 -198 320 -293 522 -321 311 -44 614
174 677 486 21 102 13 247 -17 342 -41 126 -152 328 -320 583 -27 41 -66 100
-86 130 -19 30 -65 99 -102 153 -36 53 -82 124 -101 156 -19 31 -43 66 -53 75
-10 10 -27 34 -37 55 -11 20 -40 65 -65 101 -24 36 -58 85 -75 110 -17 25 -45
67 -63 94 -49 75 -51 78 -69 98 -10 10 -18 23 -18 29 0 6 -14 30 -30 54 -16
24 -30 49 -30 56 0 7 -3 9 -7 5 -7 -7 -25 22 -59 94 -9 19 -36 66 -60 103 -24
37 -44 75 -44 83 0 9 -10 30 -22 47 -33 46 -39 192 -10 239 10 18 22 46 26 62
4 15 15 40 24 55 27 40 39 61 72 123 16 31 34 59 40 63 5 3 10 15 10 26 0 10
5 18 12 16 6 -1 14 7 16 18 2 11 10 27 17 35 7 8 23 35 35 60 13 25 26 47 29
50 4 3 26 37 51 75 24 39 50 77 57 85 20 24 143 213 143 220 0 4 11 19 25 34
14 15 36 49 50 76 13 26 28 50 32 52 4 1 36 46 71 98 73 112 135 203 191 283
23 31 41 60 41 63 0 3 17 31 37 62 21 31 41 65 45 76 5 10 17 31 28 46 37 51
118 225 140 299 89 299 -38 609 -305 748 -182 94 -382 95 -572 2 -109 -53
-195 -124 -312 -259 -31 -36 -59 -66 -63 -68 -4 -2 -38 -40 -75 -85 -37 -45
-82 -98 -100 -117 -18 -19 -33 -40 -33 -45 0 -6 -28 -40 -61 -75 -34 -36 -73
-81 -88 -100 -14 -19 -32 -39 -38 -43 -7 -4 -13 -12 -13 -17 0 -5 -9 -20 -21
-32 -11 -13 -40 -44 -63 -70 -24 -27 -42 -48 -39 -48 2 0 -21 -26 -52 -57 -31
-32 -73 -77 -93 -100 -20 -24 -42 -43 -49 -43 -7 0 -16 -6 -20 -13 -4 -6 -25
-25 -46 -41 -21 -15 -42 -39 -47 -52 -14 -36 -60 -54 -138 -54 -65 0 -71 2
-113 38 -60 51 -139 133 -139 144 0 5 -4 7 -9 4 -5 -4 -29 15 -53 41 -23 26
-68 72 -98 102 -31 31 -69 74 -85 96 -17 22 -32 42 -35 45 -3 3 -23 28 -45 55
-22 28 -48 59 -57 70 -9 11 -44 54 -78 95 -34 41 -74 89 -88 106 -15 17 -35
42 -44 55 -65 92 -247 296 -318 357 -200 172 -403 230 -623 178 -160 -38 -287
-115 -397 -242 -14 -16 -39 -40 -54 -53 l-28 -23 -54 26 c-29 14 -57 32 -61
39 -31 48 -207 155 -313 190 -172 57 -222 60 -990 72 -239 4 -469 7 -510 8
-41 1 -113 1 -160 0z m2863 -185 c113 -37 203 -114 297 -253 29 -44 135 -195
235 -335 477 -671 593 -835 760 -1078 99 -144 184 -260 189 -259 14 4 557 749
822 1127 75 107 222 308 325 447 150 201 199 259 245 292 145 104 351 108 506
10 164 -105 250 -312 203 -488 -30 -113 -3 -74 -720 -1071 -219 -305 -492
-684 -607 -842 l-209 -288 138 -187 c75 -104 219 -296 318 -428 338 -446 1061
-1476 1113 -1582 80 -169 42 -376 -94 -509 -135 -133 -358 -172 -522 -93 -103
51 -177 142 -662 829 -442 625 -855 1184 -870 1175 -5 -3 -120 -159 -255 -348
-974 -1354 -1089 -1511 -1151 -1572 -138 -137 -338 -164 -525 -71 -170 85
-271 285 -239 475 17 100 55 167 266 461 105 146 379 528 610 850 231 322 490
681 576 798 l157 214 -48 66 c-26 37 -159 229 -296 427 -283 409 -480 688
-746 1055 -234 321 -330 461 -363 527 -96 191 -66 395 79 538 130 129 298 170
468 113z m-1298 -63 c145 -31 247 -110 310 -240 75 -154 66 -327 -26 -464 -66
-99 -139 -154 -254 -190 -43 -13 -181 -16 -1012 -21 -529 -3 -965 -9 -970 -13
-4 -5 -9 -322 -11 -705 l-2 -697 877 0 c710 0 888 -3 933 -14 177 -44 312
-192 342 -375 31 -185 -73 -398 -233 -479 -112 -56 -118 -57 -1034 -57 -478 0
-846 -4 -854 -9 -8 -5 -18 -33 -22 -63 -4 -29 -8 -438 -9 -908 0 -677 -4 -868
-14 -918 -32 -147 -121 -264 -252 -329 -63 -30 -85 -36 -164 -41 -234 -13
-414 118 -477 349 -17 60 -18 187 -18 2149 0 1953 1 2092 18 2198 67 426 254
666 602 775 197 63 226 64 1275 65 781 1 936 -1 995 -13z"/>
</g>
</svg>
